<?xml version="1.0" standalone="no"?>
<!DOCTYPE svg PUBLIC "-//W3C//DTD SVG 20010904//EN"
 "http://www.w3.org/TR/2001/REC-SVG-20010904/DTD/svg10.dtd">
<svg version="1.0" xmlns="http://www.w3.org/2000/svg"
 width="64.000000pt" height="64.000000pt" viewBox="0 0 64.000000 64.000000"
 preserveAspectRatio="xMidYMid meet">

<g transform="translate(0.000000,64.000000) scale(0.100000,-0.100000)"
fill="#fbfbfb" stroke="none">
<path d="M5 589 c-11 -17 15 -29 66 -29 l46 0 33 -150 c32 -144 32 -151 15
-170 -25 -27 -13 -68 26 -84 26 -11 28 -14 15 -26 -34 -28 -6 -90 41 -90 24 0
53 30 53 55 0 10 -7 27 -17 37 -15 17 -12 18 90 18 l106 0 -16 -29 c-16 -27
-16 -30 0 -55 18 -27 45 -33 78 -16 24 13 27 78 4 86 -14 6 -13 8 1 19 39 28
5 35 -177 35 -167 0 -180 1 -177 17 3 16 22 19 187 23 l184 5 40 139 c31 112
36 140 25 147 -7 5 -115 9 -239 9 l-226 0 -9 33 c-10 32 -11 32 -76 35 -42 2
-69 -1 -73 -9z m585 -111 c0 -7 -13 -58 -28 -113 l-29 -100 -156 -3 c-87 -1
-157 0 -157 3 0 8 -40 187 -46 208 -5 16 9 17 205 17 162 0 211 -3 211 -12z
m-330 -383 c0 -8 -7 -15 -15 -15 -8 0 -15 7 -15 15 0 8 7 15 15 15 8 0 15 -7
15 -15z m263 0 c1 -5 -6 -11 -15 -13 -11 -2 -18 3 -18 13 0 17 30 18 33 0z"/>
</g>
</svg>
